<?xml version="1.0" encoding="utf-8"?>
<!-- Generator: Adobe Illustrator 16.0.0, SVG Export Plug-In . SVG Version: 6.00 Build 0)  -->
<!DOCTYPE svg PUBLIC "-//W3C//DTD SVG 1.1//EN" "http://www.w3.org/Graphics/SVG/1.1/DTD/svg11.dtd">
<svg version="1.1" id="Capa_1" xmlns="http://www.w3.org/2000/svg" xmlns:xlink="http://www.w3.org/1999/xlink" x="0px" y="0px"
	 width="530px" height="530px" viewBox="0 0 530 530" enable-background="new 0 0 530 530" xml:space="preserve">
<g>
	<g>
		<path fill="#3C9CFD" d="M408.918,409.617c-38.547,38.512-89.741,59.727-144.222,59.727c-112.369,0-203.807-91.384-203.913-203.718
			l41.585,41.638c2.756,2.739,7.19,2.739,9.944,0c2.721-2.756,2.721-7.206,0-9.944L55.75,242.25L2.067,297.319
			c-2.757,2.738-2.757,7.191,0,9.944c1.358,1.377,3.162,2.049,4.947,2.049c1.82,0,3.62-0.689,4.965-2.049l35.012-35.029
			c3.656,117.035,99.739,211.173,217.638,211.173c58.243,0,112.987-22.682,154.184-63.86c2.739-2.738,2.739-7.191,0-9.927
			C416.145,406.861,411.674,406.861,408.918,409.617z"/>
		<path fill="#3C9CFD" d="M527.93,222.736c-2.721-2.738-7.173-2.738-9.927,0l-34.979,35.012
			c-3.692-117.034-99.775-211.154-217.656-211.154c-58.279,0-113.005,22.681-154.201,63.859c-2.757,2.739-2.757,7.191,0,9.928
			c2.721,2.756,7.19,2.756,9.927,0c38.528-38.512,89.74-59.728,144.222-59.728c112.351,0,203.806,91.367,203.948,203.718
			l-41.62-41.638c-2.738-2.738-7.191-2.738-9.944,0c-2.721,2.757-2.721,7.206,0,9.944l58.584,55.136l51.668-55.136
			C530.687,229.942,530.687,225.49,527.93,222.736z"/>
	</g>
	<path fill="none" stroke="#3C9CFD" stroke-width="14" stroke-miterlimit="10" d="M477.5,265c0,116.808-94.692,211.5-211.5,211.5
		c-116.808,0-211.5-94.692-211.5-211.5c0-116.586,90.869-211.5,211.5-211.5C382.808,53.5,477.5,148.192,477.5,265z"/>
</g>
</svg>
