<svg xmlns:x="ns_extend;" xmlns:i="ns_ai;" xmlns:graph="ns_graphs;" xmlns="http://www.w3.org/2000/svg" xmlns:xlink="http://www.w3.org/1999/xlink" class="count-circle" version="1.1" id="graphycs" x="0px" y="0px" width="auto" height="560px" viewBox="0 0 600 560" enable-background="new 0 0 1140 800" xml:space="preserve">
    <linearGradient id="linearColors1" x1=".5" y1="0" x2=".5" y2="1.5">
        <stop offset="20%" stop-color="#3c9cfd"/>
        <stop offset="40%" stop-color="rgba(193, 206, 220, .2)"/>
    </linearGradient>
    <linearGradient id="linearColors2" x1="1" y1="0" x2="0.5" y2="0">
        <stop offset="0%" stop-color="rgba(193, 206, 220, .2)"/>
        <stop offset="100%" stop-color="#3c9cfd"/>
    </linearGradient>
    <linearGradient id="linearColors3" x1="1.5" y1="0" x2="1" y2="1">
        <stop offset="0%" stop-color="rgba(193, 206, 220, .2)"/>
        <stop offset="100%" stop-color="#3c9cfd"/>
    </linearGradient>
    <linearGradient id="linearColors4" x1="0.5" y1="0.5" x2=".5" y2="1">
        <stop offset="0%" stop-color="rgba(193, 206, 220, .2)"/>
        <stop offset="100%" stop-color="#3c9cfd"/>
    </linearGradient>
    <linearGradient id="linearColors5" x1="1" y1="0" x2="0.5" y2="0.5">
        <stop offset="0%" stop-color="#3c9cfd"/>
        <stop offset="100%" stop-color="#3c9cfd"/>
    </linearGradient>
    <linearGradient xmlns="http://www.w3.org/2000/svg" id="linearColors6" x1="1" y1="0.5" x2="1" y2="1">
        <stop offset="0%" stop-color="#3c9cfd"/>
        <stop offset="100%" stop-color="rgba(193, 206, 220, .2)"/>
    </linearGradient>
    <g id="group">
        <path class="circlepath" d="M253.9230 70 a120 120 0 0 1 0 120" fill="none" stroke="url(#linearColors1)" stroke-width="2" style="stroke-dasharray: 125.665px; stroke-dashoffset: 0px;"/>
        <path class="circlepath" d="M253.9230 190 a120 120 0 0 1 -103.9230 60" fill="none" stroke="url(#linearColors2)" stroke-width="2" style="stroke-dasharray: 125.665px; stroke-dashoffset: 0px;"/>
        <path class="circlepath" d="M150 250 a120 120 0 0 1 -103.9230 -60" fill="none" stroke="url(#linearColors3)" stroke-width="2" style="stroke-dasharray: 125.665px; stroke-dashoffset: 0px;"/>
        <path class="circlepath" d="M46.077 190 a100 120 0 0 1 0 -120" fill="none" stroke="url(#linearColors4)" stroke-width="2" style="stroke-dasharray: 125.665px; stroke-dashoffset: 0px;"/>
        <path class="circlepath" d="M150 10 a120 120 0 0 1 103.9230 60 " fill="none" stroke="url(#linearColors5)" stroke-width="2" style="stroke-dasharray: 125.665px; stroke-dashoffset: 0px;"/>
        <path class="circlepath" d="M46.077 70 a120 120 0 0 1 103.9230 -60" fill="none" stroke="url(#linearColors6)" stroke-width="2" style="stroke-dasharray: 125.665px; stroke-dashoffset: 0px;"/>        
    </g>
</svg>